<mxfile host="Electron" agent="Mozilla/5.0 (X11; Linux x86_64) AppleWebKit/537.36 (KHTML, like Gecko) draw.io/24.7.5 Chrome/126.0.6478.183 Electron/31.3.0 Safari/537.36" version="24.7.5">
  <diagram name="Page-1" id="Od5l3wLrRDW3ovaMI6OH">
    <mxGraphModel dx="2284" dy="1943" grid="1" gridSize="10" guides="1" tooltips="1" connect="1" arrows="1" fold="1" page="1" pageScale="1" pageWidth="850" pageHeight="1100" math="0" shadow="0">
      <root>
        <mxCell id="0" />
        <mxCell id="1" parent="0" />
        <mxCell id="qN4WwcCjyvkH8z9PgDgT-4" value="Dataset Update Endpoint" style="shape=table;startSize=30;container=1;collapsible=0;childLayout=tableLayout;strokeColor=default;fontSize=16;" parent="1" vertex="1">
          <mxGeometry x="-140" y="-200" width="760" height="667" as="geometry" />
        </mxCell>
        <mxCell id="qN4WwcCjyvkH8z9PgDgT-5" value="" style="shape=tableRow;horizontal=0;startSize=0;swimlaneHead=0;swimlaneBody=0;strokeColor=inherit;top=0;left=0;bottom=0;right=0;collapsible=0;dropTarget=0;fillColor=none;points=[[0,0.5],[1,0.5]];portConstraint=eastwest;fontSize=16;" parent="qN4WwcCjyvkH8z9PgDgT-4" vertex="1">
          <mxGeometry y="30" width="760" height="30" as="geometry" />
        </mxCell>
        <mxCell id="qN4WwcCjyvkH8z9PgDgT-6" value="API" style="shape=partialRectangle;html=1;whiteSpace=wrap;connectable=0;strokeColor=inherit;overflow=hidden;fillColor=none;top=0;left=0;bottom=0;right=0;pointerEvents=1;fontSize=16;" parent="qN4WwcCjyvkH8z9PgDgT-5" vertex="1">
          <mxGeometry width="123" height="30" as="geometry">
            <mxRectangle width="123" height="30" as="alternateBounds" />
          </mxGeometry>
        </mxCell>
        <mxCell id="qN4WwcCjyvkH8z9PgDgT-7" value="&lt;b&gt;BigML&lt;/b&gt;" style="shape=partialRectangle;html=1;whiteSpace=wrap;connectable=0;strokeColor=inherit;overflow=hidden;fillColor=none;top=0;left=0;bottom=0;right=0;pointerEvents=1;fontSize=16;" parent="qN4WwcCjyvkH8z9PgDgT-5" vertex="1">
          <mxGeometry x="123" width="267" height="30" as="geometry">
            <mxRectangle width="267" height="30" as="alternateBounds" />
          </mxGeometry>
        </mxCell>
        <mxCell id="qN4WwcCjyvkH8z9PgDgT-8" value="&lt;b&gt;IBM ML&lt;/b&gt;" style="shape=partialRectangle;html=1;whiteSpace=wrap;connectable=0;strokeColor=inherit;overflow=hidden;fillColor=none;top=0;left=0;bottom=0;right=0;pointerEvents=1;fontSize=16;" parent="qN4WwcCjyvkH8z9PgDgT-5" vertex="1">
          <mxGeometry x="390" width="370" height="30" as="geometry">
            <mxRectangle width="370" height="30" as="alternateBounds" />
          </mxGeometry>
        </mxCell>
        <mxCell id="qN4WwcCjyvkH8z9PgDgT-9" value="" style="shape=tableRow;horizontal=0;startSize=0;swimlaneHead=0;swimlaneBody=0;strokeColor=inherit;top=0;left=0;bottom=0;right=0;collapsible=0;dropTarget=0;fillColor=none;points=[[0,0.5],[1,0.5]];portConstraint=eastwest;fontSize=16;" parent="qN4WwcCjyvkH8z9PgDgT-4" vertex="1">
          <mxGeometry y="60" width="760" height="36" as="geometry" />
        </mxCell>
        <mxCell id="qN4WwcCjyvkH8z9PgDgT-10" value="HTTP verb" style="shape=partialRectangle;html=1;whiteSpace=wrap;connectable=0;strokeColor=inherit;overflow=hidden;fillColor=none;top=0;left=0;bottom=0;right=0;pointerEvents=1;fontSize=16;" parent="qN4WwcCjyvkH8z9PgDgT-9" vertex="1">
          <mxGeometry width="123" height="36" as="geometry">
            <mxRectangle width="123" height="36" as="alternateBounds" />
          </mxGeometry>
        </mxCell>
        <mxCell id="qN4WwcCjyvkH8z9PgDgT-11" value="PUT" style="shape=partialRectangle;html=1;whiteSpace=wrap;connectable=0;strokeColor=inherit;overflow=hidden;fillColor=none;top=0;left=0;bottom=0;right=0;pointerEvents=1;fontSize=16;" parent="qN4WwcCjyvkH8z9PgDgT-9" vertex="1">
          <mxGeometry x="123" width="267" height="36" as="geometry">
            <mxRectangle width="267" height="36" as="alternateBounds" />
          </mxGeometry>
        </mxCell>
        <mxCell id="qN4WwcCjyvkH8z9PgDgT-12" value="PATCH" style="shape=partialRectangle;html=1;whiteSpace=wrap;connectable=0;strokeColor=inherit;overflow=hidden;fillColor=none;top=0;left=0;bottom=0;right=0;pointerEvents=1;fontSize=16;" parent="qN4WwcCjyvkH8z9PgDgT-9" vertex="1">
          <mxGeometry x="390" width="370" height="36" as="geometry">
            <mxRectangle width="370" height="36" as="alternateBounds" />
          </mxGeometry>
        </mxCell>
        <mxCell id="qN4WwcCjyvkH8z9PgDgT-13" value="" style="shape=tableRow;horizontal=0;startSize=0;swimlaneHead=0;swimlaneBody=0;strokeColor=inherit;top=0;left=0;bottom=0;right=0;collapsible=0;dropTarget=0;fillColor=none;points=[[0,0.5],[1,0.5]];portConstraint=eastwest;fontSize=16;" parent="qN4WwcCjyvkH8z9PgDgT-4" vertex="1">
          <mxGeometry y="96" width="760" height="132" as="geometry" />
        </mxCell>
        <mxCell id="qN4WwcCjyvkH8z9PgDgT-14" value="HTTP Request Body" style="shape=partialRectangle;html=1;whiteSpace=wrap;connectable=0;strokeColor=inherit;overflow=hidden;fillColor=none;top=0;left=0;bottom=0;right=0;pointerEvents=1;fontSize=16;" parent="qN4WwcCjyvkH8z9PgDgT-13" vertex="1">
          <mxGeometry width="123" height="132" as="geometry">
            <mxRectangle width="123" height="132" as="alternateBounds" />
          </mxGeometry>
        </mxCell>
        <mxCell id="qN4WwcCjyvkH8z9PgDgT-15" value="" style="shape=partialRectangle;html=1;whiteSpace=wrap;connectable=0;strokeColor=inherit;overflow=hidden;fillColor=none;top=0;left=0;bottom=0;right=0;pointerEvents=1;fontSize=16;" parent="qN4WwcCjyvkH8z9PgDgT-13" vertex="1">
          <mxGeometry x="123" width="267" height="132" as="geometry">
            <mxRectangle width="267" height="132" as="alternateBounds" />
          </mxGeometry>
        </mxCell>
        <mxCell id="qN4WwcCjyvkH8z9PgDgT-16" value="" style="shape=partialRectangle;html=1;whiteSpace=wrap;connectable=0;strokeColor=inherit;overflow=hidden;fillColor=none;top=0;left=0;bottom=0;right=0;pointerEvents=1;fontSize=16;" parent="qN4WwcCjyvkH8z9PgDgT-13" vertex="1">
          <mxGeometry x="390" width="370" height="132" as="geometry">
            <mxRectangle width="370" height="132" as="alternateBounds" />
          </mxGeometry>
        </mxCell>
        <mxCell id="qN4WwcCjyvkH8z9PgDgT-26" style="shape=tableRow;horizontal=0;startSize=0;swimlaneHead=0;swimlaneBody=0;strokeColor=inherit;top=0;left=0;bottom=0;right=0;collapsible=0;dropTarget=0;fillColor=none;points=[[0,0.5],[1,0.5]];portConstraint=eastwest;fontSize=16;" parent="qN4WwcCjyvkH8z9PgDgT-4" vertex="1">
          <mxGeometry y="228" width="760" height="42" as="geometry" />
        </mxCell>
        <mxCell id="qN4WwcCjyvkH8z9PgDgT-27" value="Response Status Code" style="shape=partialRectangle;html=1;whiteSpace=wrap;connectable=0;strokeColor=inherit;overflow=hidden;fillColor=none;top=0;left=0;bottom=0;right=0;pointerEvents=1;fontSize=16;" parent="qN4WwcCjyvkH8z9PgDgT-26" vertex="1">
          <mxGeometry width="123" height="42" as="geometry">
            <mxRectangle width="123" height="42" as="alternateBounds" />
          </mxGeometry>
        </mxCell>
        <mxCell id="qN4WwcCjyvkH8z9PgDgT-28" value="202" style="shape=partialRectangle;html=1;whiteSpace=wrap;connectable=0;strokeColor=inherit;overflow=hidden;fillColor=none;top=0;left=0;bottom=0;right=0;pointerEvents=1;fontSize=16;" parent="qN4WwcCjyvkH8z9PgDgT-26" vertex="1">
          <mxGeometry x="123" width="267" height="42" as="geometry">
            <mxRectangle width="267" height="42" as="alternateBounds" />
          </mxGeometry>
        </mxCell>
        <mxCell id="qN4WwcCjyvkH8z9PgDgT-29" value="200" style="shape=partialRectangle;html=1;whiteSpace=wrap;connectable=0;strokeColor=inherit;overflow=hidden;fillColor=none;top=0;left=0;bottom=0;right=0;pointerEvents=1;fontSize=16;" parent="qN4WwcCjyvkH8z9PgDgT-26" vertex="1">
          <mxGeometry x="390" width="370" height="42" as="geometry">
            <mxRectangle width="370" height="42" as="alternateBounds" />
          </mxGeometry>
        </mxCell>
        <mxCell id="qN4WwcCjyvkH8z9PgDgT-30" style="shape=tableRow;horizontal=0;startSize=0;swimlaneHead=0;swimlaneBody=0;strokeColor=inherit;top=0;left=0;bottom=0;right=0;collapsible=0;dropTarget=0;fillColor=none;points=[[0,0.5],[1,0.5]];portConstraint=eastwest;fontSize=16;" parent="qN4WwcCjyvkH8z9PgDgT-4" vertex="1">
          <mxGeometry y="270" width="760" height="397" as="geometry" />
        </mxCell>
        <mxCell id="qN4WwcCjyvkH8z9PgDgT-31" value="Response Body" style="shape=partialRectangle;html=1;whiteSpace=wrap;connectable=0;strokeColor=inherit;overflow=hidden;fillColor=none;top=0;left=0;bottom=0;right=0;pointerEvents=1;fontSize=16;" parent="qN4WwcCjyvkH8z9PgDgT-30" vertex="1">
          <mxGeometry width="123" height="397" as="geometry">
            <mxRectangle width="123" height="397" as="alternateBounds" />
          </mxGeometry>
        </mxCell>
        <mxCell id="qN4WwcCjyvkH8z9PgDgT-32" style="shape=partialRectangle;html=1;whiteSpace=wrap;connectable=0;strokeColor=inherit;overflow=hidden;fillColor=none;top=0;left=0;bottom=0;right=0;pointerEvents=1;fontSize=16;" parent="qN4WwcCjyvkH8z9PgDgT-30" vertex="1">
          <mxGeometry x="123" width="267" height="397" as="geometry">
            <mxRectangle width="267" height="397" as="alternateBounds" />
          </mxGeometry>
        </mxCell>
        <mxCell id="qN4WwcCjyvkH8z9PgDgT-33" style="shape=partialRectangle;html=1;whiteSpace=wrap;connectable=0;strokeColor=inherit;overflow=hidden;fillColor=none;top=0;left=0;bottom=0;right=0;pointerEvents=1;fontSize=16;" parent="qN4WwcCjyvkH8z9PgDgT-30" vertex="1">
          <mxGeometry x="390" width="370" height="397" as="geometry">
            <mxRectangle width="370" height="397" as="alternateBounds" />
          </mxGeometry>
        </mxCell>
        <mxCell id="qN4WwcCjyvkH8z9PgDgT-3" value="&lt;div style=&quot;text-align: justify;&quot;&gt;&lt;div&gt;{&lt;/div&gt;&lt;div&gt;&amp;nbsp; &amp;nbsp; &quot;name&quot;: &quot;a new name&quot;&lt;/div&gt;&lt;div&gt;}&lt;/div&gt;&lt;/div&gt;" style="text;html=1;align=center;verticalAlign=middle;resizable=0;points=[];autosize=1;strokeColor=none;fillColor=none;" parent="1" vertex="1">
          <mxGeometry x="31" y="-67" width="160" height="60" as="geometry" />
        </mxCell>
        <mxCell id="XgSgT4kqmvN1IkSfaM_B-1" value="&lt;div style=&quot;text-align: justify;&quot;&gt;[&lt;/div&gt;&lt;div style=&quot;text-align: justify;&quot;&gt;&amp;nbsp; &amp;nbsp; {&lt;/div&gt;&lt;div style=&quot;text-align: justify;&quot;&gt;&amp;nbsp; &amp;nbsp; &amp;nbsp; &amp;nbsp; &quot;op&quot;: &quot;replace&quot;,&lt;/div&gt;&lt;div style=&quot;text-align: justify;&quot;&gt;&amp;nbsp; &amp;nbsp; &amp;nbsp; &amp;nbsp; &quot;path&quot;: &quot;name&quot;,&lt;/div&gt;&lt;div style=&quot;text-align: justify;&quot;&gt;&amp;nbsp; &amp;nbsp; &amp;nbsp; &amp;nbsp; &quot;value&quot;: &quot;new_name&quot;&lt;/div&gt;&lt;div style=&quot;text-align: justify;&quot;&gt;&amp;nbsp; &amp;nbsp; }&lt;/div&gt;&lt;div style=&quot;text-align: justify;&quot;&gt;]&lt;/div&gt;" style="text;html=1;align=center;verticalAlign=middle;resizable=0;points=[];autosize=1;strokeColor=none;fillColor=none;" parent="1" vertex="1">
          <mxGeometry x="350" y="-92" width="160" height="110" as="geometry" />
        </mxCell>
        <mxCell id="qN4WwcCjyvkH8z9PgDgT-42" value="&lt;div style=&quot;text-align: justify;&quot;&gt;{&lt;/div&gt;&lt;div style=&quot;text-align: justify;&quot;&gt;&amp;nbsp; &amp;nbsp; &quot;all_fields&quot;: true,&lt;/div&gt;&lt;div style=&quot;text-align: justify;&quot;&gt;&amp;nbsp; &amp;nbsp; &quot;category&quot;: 0,&lt;/div&gt;&lt;div style=&quot;text-align: justify;&quot;&gt;&amp;nbsp; &amp;nbsp; &quot;cluster&quot;: null,&lt;/div&gt;&lt;div style=&quot;text-align: justify;&quot;&gt;&amp;nbsp; &amp;nbsp; &quot;created&quot;: &quot;2024-06-02T16:22:56.305000&quot;,&lt;/div&gt;&lt;div style=&quot;text-align: justify;&quot;&gt;&amp;nbsp; &amp;nbsp; &quot;creator&quot;: &quot;rruizsalvat&quot;,&lt;/div&gt;&lt;div style=&quot;text-align: justify;&quot;&gt;&amp;nbsp; &amp;nbsp; ...&lt;/div&gt;&lt;div style=&quot;text-align: justify;&quot;&gt;&amp;nbsp; &amp;nbsp;&amp;nbsp;&lt;/div&gt;&lt;div style=&quot;text-align: justify;&quot;&gt;&amp;nbsp; &amp;nbsp; &quot;fields&quot;: {&lt;/div&gt;&lt;div style=&quot;text-align: justify;&quot;&gt;&amp;nbsp; &amp;nbsp; &amp;nbsp; &amp;nbsp; &quot;000000&quot;: {&lt;/div&gt;&lt;div style=&quot;text-align: justify;&quot;&gt;&amp;nbsp; &amp;nbsp; &amp;nbsp; &amp;nbsp; &amp;nbsp; &amp;nbsp; &quot;column_number&quot;: 0,&lt;/div&gt;&lt;div style=&quot;text-align: justify;&quot;&gt;&amp;nbsp; &amp;nbsp; &amp;nbsp; &amp;nbsp; &amp;nbsp; &amp;nbsp; &quot;datatype&quot;: &quot;double&quot;,&lt;/div&gt;&lt;div style=&quot;text-align: justify;&quot;&gt;&amp;nbsp; &amp;nbsp; &amp;nbsp; &amp;nbsp; &amp;nbsp; &amp;nbsp; &quot;name&quot;: &quot;sepal length&quot;,&lt;/div&gt;&lt;div style=&quot;text-align: justify;&quot;&gt;&amp;nbsp; &amp;nbsp; &amp;nbsp; &amp;nbsp; &amp;nbsp; &amp;nbsp; &quot;optype&quot;: &quot;numeric&quot;,&lt;/div&gt;&lt;div style=&quot;text-align: justify;&quot;&gt;&amp;nbsp; &amp;nbsp; &amp;nbsp; &amp;nbsp; &amp;nbsp; &amp;nbsp; &quot;order&quot;: 0,&lt;/div&gt;&lt;div style=&quot;text-align: justify;&quot;&gt;&amp;nbsp; &amp;nbsp; &amp;nbsp; &amp;nbsp; &amp;nbsp; &amp;nbsp; &quot;preferred&quot;: true,&lt;/div&gt;&lt;div style=&quot;text-align: justify;&quot;&gt;&amp;nbsp; &amp;nbsp; &amp;nbsp; &amp;nbsp; &amp;nbsp; &amp;nbsp; &quot;summary&quot;: {&lt;/div&gt;&lt;div style=&quot;text-align: justify;&quot;&gt;&amp;nbsp; &amp;nbsp; &amp;nbsp; &amp;nbsp; &amp;nbsp; &amp;nbsp; &amp;nbsp; &amp;nbsp; &quot;bins&quot;: [&lt;/div&gt;&lt;div style=&quot;text-align: justify;&quot;&gt;&amp;nbsp; &amp;nbsp; &amp;nbsp; &amp;nbsp; &amp;nbsp; &amp;nbsp; &amp;nbsp; &amp;nbsp; &amp;nbsp; &amp;nbsp; [&lt;/div&gt;&lt;div style=&quot;text-align: justify;&quot;&gt;&amp;nbsp; &amp;nbsp; &amp;nbsp; &amp;nbsp; &amp;nbsp; &amp;nbsp; &amp;nbsp; &amp;nbsp; &amp;nbsp; &amp;nbsp; &amp;nbsp; &amp;nbsp; 4.3,&lt;/div&gt;&lt;div style=&quot;text-align: justify;&quot;&gt;&amp;nbsp; &amp;nbsp; &amp;nbsp; &amp;nbsp; &amp;nbsp; &amp;nbsp; &amp;nbsp; &amp;nbsp; &amp;nbsp; &amp;nbsp; &amp;nbsp; &amp;nbsp; 1&lt;/div&gt;&lt;div style=&quot;text-align: justify;&quot;&gt;&amp;nbsp; &amp;nbsp; &amp;nbsp; &amp;nbsp; &amp;nbsp; &amp;nbsp; &amp;nbsp; &amp;nbsp; &amp;nbsp; &amp;nbsp; ],&lt;/div&gt;&lt;div style=&quot;text-align: justify;&quot;&gt;&amp;nbsp; &amp;nbsp; &amp;nbsp; &amp;nbsp; &amp;nbsp; &amp;nbsp; &amp;nbsp; &amp;nbsp; &amp;nbsp; &amp;nbsp; [&lt;/div&gt;&lt;div style=&quot;text-align: justify;&quot;&gt;&amp;nbsp; &amp;nbsp; &amp;nbsp; &amp;nbsp; &amp;nbsp; &amp;nbsp; &amp;nbsp; &amp;nbsp; &amp;nbsp; &amp;nbsp; &amp;nbsp; &amp;nbsp; 4.425,&lt;/div&gt;&lt;div style=&quot;text-align: justify;&quot;&gt;&amp;nbsp; &amp;nbsp; &amp;nbsp; &amp;nbsp; &amp;nbsp; &amp;nbsp; &amp;nbsp; &amp;nbsp; &amp;nbsp; &amp;nbsp; &amp;nbsp; &amp;nbsp; 4&lt;/div&gt;&lt;div style=&quot;text-align: justify;&quot;&gt;&amp;nbsp; &amp;nbsp; &amp;nbsp; &amp;nbsp; &amp;nbsp; &amp;nbsp; &amp;nbsp; &amp;nbsp; &amp;nbsp; &amp;nbsp; ],&lt;/div&gt;" style="text;html=1;align=center;verticalAlign=middle;whiteSpace=wrap;rounded=0;" parent="1" vertex="1">
          <mxGeometry x="-19" y="70" width="260" height="390" as="geometry" />
        </mxCell>
        <mxCell id="qN4WwcCjyvkH8z9PgDgT-47" value="&lt;div style=&quot;text-align: justify;&quot;&gt;&lt;div&gt;{&lt;/div&gt;&lt;div&gt;&amp;nbsp; &amp;nbsp; &quot;entity&quot;: {},&lt;/div&gt;&lt;div&gt;&amp;nbsp; &amp;nbsp; &quot;metadata&quot;: {&lt;/div&gt;&lt;div&gt;&amp;nbsp; &amp;nbsp; &amp;nbsp; &amp;nbsp; &quot;created_at&quot;: &quot;2024-06-07T17:40:37.084Z&quot;,&lt;/div&gt;&lt;div&gt;&amp;nbsp; &amp;nbsp; &amp;nbsp; &amp;nbsp; &quot;description&quot;: &quot;This is my first resource.&quot;,&lt;/div&gt;&lt;div&gt;&amp;nbsp; &amp;nbsp; &amp;nbsp; &amp;nbsp; &quot;id&quot;: &quot;e83d9ae3-1c59-43d5-8b89-b38d34a8f2e9&quot;,&lt;/div&gt;&lt;div&gt;&amp;nbsp; &amp;nbsp; &amp;nbsp; &amp;nbsp; &quot;modified_at&quot;: &quot;2024-06-07T17:40:37.084Z&quot;,&lt;/div&gt;&lt;div&gt;&amp;nbsp; &amp;nbsp; &amp;nbsp; &amp;nbsp; &quot;name&quot;: &quot;my-resource&quot;,&lt;/div&gt;&lt;div&gt;&amp;nbsp; &amp;nbsp; &amp;nbsp; &amp;nbsp; &quot;owner&quot;: &quot;IBMid-692000F6R5&quot;,&lt;/div&gt;&lt;div&gt;&amp;nbsp; &amp;nbsp; &amp;nbsp; &amp;nbsp; &quot;project_id&quot;: &quot;cce6c1cd-30e5-4b16-a380-966592b1a296&quot;,&lt;/div&gt;&lt;div&gt;&amp;nbsp; &amp;nbsp; &amp;nbsp; &amp;nbsp; &quot;tags&quot;: [&lt;/div&gt;&lt;div&gt;&amp;nbsp; &amp;nbsp; &amp;nbsp; &amp;nbsp; &amp;nbsp; &amp;nbsp; &quot;t1&quot;,&lt;/div&gt;&lt;div&gt;&amp;nbsp; &amp;nbsp; &amp;nbsp; &amp;nbsp; &amp;nbsp; &amp;nbsp; &quot;t2&quot;&lt;/div&gt;&lt;div&gt;&amp;nbsp; &amp;nbsp; &amp;nbsp; &amp;nbsp; ]&lt;/div&gt;&lt;div&gt;&amp;nbsp; &amp;nbsp; },&lt;/div&gt;&lt;div&gt;&amp;nbsp; &amp;nbsp; &quot;system&quot;: {&lt;/div&gt;&lt;div&gt;&amp;nbsp; &amp;nbsp; &amp;nbsp; &amp;nbsp; &quot;warnings&quot;: []&lt;/div&gt;&lt;div&gt;&amp;nbsp; &amp;nbsp; }&lt;/div&gt;&lt;div&gt;}&lt;/div&gt;&lt;/div&gt;" style="text;html=1;align=center;verticalAlign=middle;whiteSpace=wrap;rounded=0;" parent="1" vertex="1">
          <mxGeometry x="251" y="130" width="350" height="167" as="geometry" />
        </mxCell>
      </root>
    </mxGraphModel>
  </diagram>
</mxfile>
